HIERARCHY
ROOT hip
{
  OFFSET 0 0 0
  CHANNELS 6 Xposition Yposition Zposition Zrotation Yrotation Xrotation
  JOINT abdomen
  {
    OFFSET 0 20.6881 -0.73152
    CHANNELS 3 Zrotation Xrotation Yrotation
    JOINT chest
    {
      OFFSET 0 11.7043 -0.48768
      CHANNELS 3 Zrotation Xrotation Yrotation
      JOINT neck
      {
        OFFSET 0 22.1894 -2.19456
        CHANNELS 3 Zrotation Xrotation Yrotation
        JOINT head
        {
          OFFSET -0.24384 7.07133 1.2192
          CHANNELS 3 Zrotation Xrotation Yrotation
          JOINT leftEye
          {
            OFFSET 4.14528 8.04674 8.04672
            CHANNELS 3 Zrotation Xrotation Yrotation
            End Site
            {
              OFFSET 1 0 0
            }
          }
          JOINT rightEye
          {
            OFFSET -3.6576 8.04674 8.04672
            CHANNELS 3 Zrotation Xrotation Yrotation
            End Site
            {
              OFFSET 1 0 0
            }
          }
        }
      }
      JOINT rCollar
      {
        OFFSET -2.68224 19.2634 -4.8768
        CHANNELS 3 Zrotation Xrotation Yrotation
        JOINT rShldr
        {
          OFFSET -8.77824 -1.95073 1.46304
          CHANNELS 3 Zrotation Xrotation Yrotation
          JOINT rForeArm
          {
            OFFSET -28.1742 -1.7115 0.48768
            CHANNELS 3 Zrotation Xrotation Yrotation
            JOINT rHand
            {
              OFFSET -22.5879 0.773209 7.07136
              CHANNELS 3 Zrotation Xrotation Yrotation
              JOINT rThumb1
              {
                OFFSET -1.2192 -0.487915 3.41376
                CHANNELS 3 Zrotation Xrotation Yrotation
                JOINT rThumb2
                {
                  OFFSET -3.37035 -0.52449 3.41376
                  CHANNELS 3 Zrotation Xrotation Yrotation
                  End Site
                  {
                    OFFSET -1.78271 -1.18214 1.43049
                  }
                }
              }
              JOINT rIndex1
              {
                OFFSET -7.75947 0.938293 5.60832
                CHANNELS 3 Zrotation Xrotation Yrotation
                JOINT rIndex2
                {
                  OFFSET -2.54057 -0.884171 1.56538
                  CHANNELS 3 Zrotation Xrotation Yrotation
                  End Site
                  {
                    OFFSET -1.62519 -0.234802 1.16502
                  }
                }
              }
              JOINT rMid1
              {
                OFFSET -8.24714 1.18213 3.41376
                CHANNELS 3 Zrotation Xrotation Yrotation
                JOINT rMid2
                {
                  OFFSET -3.10165 -0.590103 1.0647
                  CHANNELS 3 Zrotation Xrotation Yrotation
                  End Site
                  {
                    OFFSET -2.48547 -0.328903 0.83742
                  }
                }
              }
              JOINT rRing1
              {
                OFFSET -8.82822 0.546677 1.51678
                CHANNELS 3 Zrotation Xrotation Yrotation
                JOINT rRing2
                {
                  OFFSET -2.60934 -0.819778 -0.0198488
                  CHANNELS 3 Zrotation Xrotation Yrotation
                  End Site
                  {
                    OFFSET -2.33842 -0.294052 0.168128
                  }
                }
              }
              JOINT rPinky1
              {
                OFFSET -8.27202 -0.0477905 -0.4584
                CHANNELS 3 Zrotation Xrotation Yrotation
                JOINT rPinky2
                {
                  OFFSET -1.82734 -0.647385 -0.700984
                  CHANNELS 3 Zrotation Xrotation Yrotation
                  End Site
                  {
                    OFFSET -1.69225 -0.51767 -0.607171
                  }
                }
              }
            }
          }
        }
      }
      JOINT lCollar
      {
        OFFSET 2.68224 19.2634 -4.8768
        CHANNELS 3 Zrotation Xrotation Yrotation
        JOINT lShldr
        {
          OFFSET 8.77824 -1.95073 1.46304
          CHANNELS 3 Zrotation Xrotation Yrotation
          JOINT lForeArm
          {
            OFFSET 28.1742 -1.7115 0.48768
            CHANNELS 3 Zrotation Xrotation Yrotation
            JOINT lHand
            {
              OFFSET 22.5879 0.773209 7.07136
              CHANNELS 3 Zrotation Xrotation Yrotation
              JOINT lThumb1
              {
                OFFSET 1.2192 -0.487915 3.41376
                CHANNELS 3 Zrotation Xrotation Yrotation
                JOINT lThumb2
                {
                  OFFSET 3.37035 -0.52449 3.41376
                  CHANNELS 3 Zrotation Xrotation Yrotation
                  End Site
                  {
                    OFFSET 1.78271 -1.18214 1.43049
                  }
                }
              }
              JOINT lIndex1
              {
                OFFSET 7.75947 0.938293 5.60832
                CHANNELS 3 Zrotation Xrotation Yrotation
                JOINT lIndex2
                {
                  OFFSET 2.54057 -0.884171 1.56538
                  CHANNELS 3 Zrotation Xrotation Yrotation
                  End Site
                  {
                    OFFSET 1.62519 -0.234802 1.16502
                  }
                }
              }
              JOINT lMid1
              {
                OFFSET 8.24714 1.18213 3.41376
                CHANNELS 3 Zrotation Xrotation Yrotation
                JOINT lMid2
                {
                  OFFSET 3.10165 -0.590103 1.0647
                  CHANNELS 3 Zrotation Xrotation Yrotation
                  End Site
                  {
                    OFFSET 2.48547 -0.328903 0.83742
                  }
                }
              }
              JOINT lRing1
              {
                OFFSET 8.82822 0.546677 1.51678
                CHANNELS 3 Zrotation Xrotation Yrotation
                JOINT lRing2
                {
                  OFFSET 2.60934 -0.819778 -0.0198488
                  CHANNELS 3 Zrotation Xrotation Yrotation
                  End Site
                  {
                    OFFSET 2.33842 -0.294052 0.168128
                  }
                }
              }
              JOINT lPinky1
              {
                OFFSET 8.27202 -0.0477905 -0.4584
                CHANNELS 3 Zrotation Xrotation Yrotation
                JOINT lPinky2
                {
                  OFFSET 1.82734 -0.647385 -0.700984
                  CHANNELS 3 Zrotation Xrotation Yrotation
                  End Site
                  {
                    OFFSET 1.69225 -0.51767 -0.607171
                  }
                }
              }
            }
          }
        }
      }
    }
  }
  JOINT rButtock
  {
    OFFSET -8.77824 4.35084 1.2192
    CHANNELS 3 Zrotation Xrotation Yrotation
    JOINT rThigh
    {
      OFFSET 0 -1.70687 -2.19456
      CHANNELS 3 Zrotation Xrotation Yrotation
      JOINT rShin
      {
        OFFSET 0 -36.8199 0.73152
        CHANNELS 3 Zrotation Xrotation Yrotation
        JOINT rFoot
        {
          OFFSET 0.73152 -45.1104 -5.12064
          CHANNELS 3 Zrotation Xrotation Yrotation
          End Site
          {
            OFFSET -1.1221 -3.69964 12.103
          }
        }
      }
    }
  }
  JOINT lButtock
  {
    OFFSET 8.77824 4.35084 1.2192
    CHANNELS 3 Zrotation Xrotation Yrotation
    JOINT lThigh
    {
      OFFSET 0 -1.70687 -2.19456
      CHANNELS 3 Zrotation Xrotation Yrotation
      JOINT lShin
      {
        OFFSET 0 -36.8199 0.73152
        CHANNELS 3 Zrotation Xrotation Yrotation
        JOINT lFoot
        {
          OFFSET -0.73152 -45.1104 -5.12064
          CHANNELS 3 Zrotation Xrotation Yrotation
          End Site
          {
            OFFSET 1.1221 -3.69964 12.103
          }
        }
      }
    }
  }
}
MOTION
Frames:	4
Frame Time:	0.00833333
54.4873 85.5269 144.623 0.0 0.0 0.0 2.34099 -0.00222388 0.0637208 0.646591 0.00595034 0.111937 3.22616e-14 0.0 -8.44835e-16 9.80474e-14 3.18055e-15 -2.50966e-15 -0.0 0.0 0.0 -0.0 0.0 0.0 1.62495e-14 -6.7944e-17 -2.98177e-16 3.45985e-13 -1.47225e-15 -6.75868e-15 5.93755e-12 -1.8161e-12 -2.00375e-13 6.78983e-11 1.51539e-12 -1.58392e-12 1.60179e-10 -6.51866e-13 -3.8771e-12 2.76618e-10 -1.11956e-12 -6.71336e-12 1.60189e-10 -6.48833e-13 -3.88664e-12 7.73091 5.47488 0.417314 1.6018e-10 -6.51716e-13 -3.88028e-12 2.90554 0.965183 0.102902 1.60189e-10 -6.51815e-13 -3.88346e-12 10.2786 0.731801 0.0259123 1.60178e-10 -6.50821e-13 -3.88028e-12 2.22167 -0.733487 -0.20892 1.62529e-14 -6.25085e-17 -4.96962e-16 3.40024e-13 -1.59028e-15 -8.74653e-15 5.92542e-12 1.72525e-12 -2.25819e-13 6.78857e-11 -2.02457e-12 -1.55529e-12 1.60131e-10 -6.48578e-13 -3.89936e-12 2.76553e-10 -1.11637e-12 -6.71813e-12 1.60126e-10 -6.46845e-13 -3.88664e-12 -7.73091 5.47488 -0.417314 1.60131e-10 -6.48734e-13 -3.89618e-12 -2.90554 0.965183 -0.102902 1.6012e-10 -6.47939e-13 -3.893e-12 -10.2786 0.731801 -0.0259123 1.60137e-10 -6.46845e-13 -3.89618e-12 -2.22167 -0.733487 0.20892 -2.03217e-16 0.0 -3.88251e-19 2.21583 -8.02969 -0.231383 0.00606952 8.97361 0.152051 -0.478047 -0.951424 0.0349023 2.03217e-16 0.0 3.88251e-19 1.3524 -1.92788 -0.00536362 0.00846408 -2.07867 0.069438 0.423506 3.99898 -0.127237
54.959 84.888 132.637 -179.35 -4.4638 178.772 3.46516 0.959347 2.14131 -0.00332083 -2.50138 0.689845 2.37639 4.29171 4.65971 -4.66567 -7.97905 8.23093 -0.0 0.0 0.0 -0.0 0.0 0.0 2.59394e-14 -1.69101e-15 7.42678e-14 22.6351 13.016 -3.2059 -5.06576 -2.49955 7.68594 0.0259718 3.57696 0.499179 1.94317e-10 2.50769e-10 -1.4778e-10 3.3422e-10 4.3689e-10 -2.57185e-10 1.94323e-10 2.50774e-10 -1.4779e-10 7.73091 5.47488 0.417314 1.94316e-10 2.50776e-10 -1.47781e-10 2.90554 0.965183 0.102902 1.94324e-10 2.5077e-10 -1.47785e-10 10.2786 0.731801 0.0259123 1.94315e-10 2.50772e-10 -1.47781e-10 2.22167 -0.733487 -0.20892 2.5966e-14 -1.68362e-15 7.40803e-14 -22.0481 12.0177 1.6063 5.15014 -2.56095 -7.78979 -0.0337929 4.08171 -0.56841 -2.23618e-10 -4.27573e-10 -7.62207e-11 -3.87535e-10 -7.36481e-10 -1.27115e-10 -2.2362e-10 -4.27566e-10 -7.6206e-11 -7.73091 5.47488 -0.417314 -2.23617e-10 -4.2757e-10 -7.62172e-11 -2.90554 0.965183 -0.102902 -2.2363e-10 -4.2757e-10 -7.6216e-11 -10.2786 0.731801 -0.0259123 -2.23614e-10 -4.2757e-10 -7.6222e-11 -2.22167 -0.733487 0.20892 -2.03217e-16 0.0 -3.88251e-19 4.3408 -7.30552 3.47244 0.0266741 12.1226 0.232081 -1.44788 -4.50663 -9.09281 2.03217e-16 0.0 3.88251e-19 0.791292 -3.66839 -5.89143 -0.00494259 3.96159 -0.0910415 0.869316 -0.422878 4.15178
54.9113 84.874 132.669 -179.498 -4.632 178.92 4.57646 1.97849 4.33407 -0.633255 -5.1543 1.30338 4.12309 8.72341 9.67439 -7.04799 -15.8434 17.458 -0.0 0.0 0.0 -0.0 0.0 0.0 3.57596e-14 -3.21382e-15 1.55549e-13 48.3146 26.6559 -7.1909 -9.68865 -4.98382 15.8429 -0.0148242 7.34812 1.03209 2.36296e-10 5.21792e-10 -3.00398e-10 4.05277e-10 9.09152e-10 -5.22922e-10 2.36299e-10 5.21801e-10 -3.00409e-10 7.73091 5.47488 0.417314 2.36295e-10 5.21807e-10 -3.00398e-10 2.90554 0.965183 0.102902 2.36302e-10 5.21796e-10 -3.00401e-10 10.2786 0.731801 0.0259123 2.36295e-10 5.21797e-10 -3.00398e-10 2.22167 -0.733487 -0.20892 3.58114e-14 -3.20414e-15 1.55372e-13 -46.1568 24.6851 3.55532 9.84767 -5.11287 -16.0786 0.01936 8.37997 -1.17683 -6.34679e-10 -8.80896e-10 -1.4707e-10 -1.09879e-09 -1.51721e-09 -2.44641e-10 -6.34678e-10 -8.80885e-10 -1.47053e-10 -7.73091 5.47488 -0.417314 -6.34676e-10 -8.8089e-10 -1.47066e-10 -2.90554 0.965183 -0.102902 -6.34691e-10 -8.80891e-10 -1.47067e-10 -10.2786 0.731801 -0.0259123 -6.34675e-10 -8.80893e-10 -1.47076e-10 -2.22167 -0.733487 0.20892 -2.03217e-16 0.0 -3.88251e-19 6.48636 -6.51111 7.37764 0.0385123 15.451 0.319609 -3.69466 -7.93847 -18.8792 2.03217e-16 0.0 3.88251e-19 -0.188862 -5.42469 -12.1422 0.0181192 10.3476 -0.264482 2.05753 -5.03987 8.70742
54.8911 84.8618 132.697 -179.511 -4.8219 179.051 5.50454 2.86709 6.30351 -1.15027 -7.51268 1.85966 5.01507 12.5309 14.2872 -6.91791 -21.8952 26.4945 -0.0 0.0 0.0 -0.0 0.0 0.0 4.53192e-14 -4.93713e-15 2.234e-13 73.2762 38.4885 -12.0057 -13.2334 -6.96007 23.2168 -0.111874 10.7276 1.52121 2.62591e-10 7.5361e-10 -4.35585e-10 4.49425e-10 1.31291e-09 -7.58127e-10 2.62591e-10 7.5362e-10 -4.35598e-10 7.73091 5.47488 0.417314 2.62589e-10 7.53631e-10 -4.35583e-10 2.90554 0.965183 0.102902 2.62595e-10 7.53615e-10 -4.35587e-10 10.2786 0.731801 0.0259123 2.6259e-10 7.53617e-10 -4.35583e-10 2.22167 -0.733487 -0.20892 4.53924e-14 -4.92583e-15 2.23235e-13 -68.5654 35.926 5.82391 13.4123 -7.11603 -23.538 0.146351 12.2402 -1.74048 -9.91117e-10 -1.28142e-09 -2.20863e-10 -1.71571e-09 -2.20721e-09 -3.6791e-10 -9.91114e-10 -1.28141e-09 -2.20845e-10 -7.73091 5.47488 -0.417314 -9.91114e-10 -1.28141e-09 -2.20859e-10 -2.90554 0.965183 -0.102902 -9.91131e-10 -1.28141e-09 -2.20862e-10 -10.2786 0.731801 -0.0259123 -9.91115e-10 -1.28142e-09 -2.20874e-10 -2.22167 -0.733487 0.20892 -2.03217e-16 0.0 -3.88251e-19 8.30766 -5.79229 10.8469 0.0399909 18.4203 0.400877 -6.68584 -10.4631 -27.7636 2.03217e-16 0.0 3.88251e-19 -1.38964 -6.86758 -17.7588 0.0726639 16.0417 -0.42792 3.74306 -9.04091 12.8715
